<svg width="54" height="47" viewBox="0 0 54 47" fill="none" xmlns="http://www.w3.org/2000/svg">
<path d="M26.9274 22.0099H25.9274V24.0099H26.9274V22.0099Z" fill="black"/>
<path d="M26.9274 10.0099H25.9274V12.0099H26.9274V10.0099Z" fill="black"/>
<path d="M21.4274 16.5099H19.4274V17.5099H21.4274V16.5099Z" fill="black"/>
<path d="M33.4274 16.5099H31.4274V17.5099H33.4274V16.5099Z" fill="black"/>
<path d="M31.7288 21.6063L30.3139 20.1914L29.6068 20.8985L31.0217 22.3134L31.7288 21.6063Z" fill="black"/>
<path d="M23.2438 13.1214L21.8289 11.7065L21.1218 12.4136L22.5367 13.8285L23.2438 13.1214Z" fill="black"/>
<path d="M23.2458 20.8983L22.5387 20.1912L21.1238 21.6061L21.8309 22.3132L23.2458 20.8983Z" fill="black"/>
<path d="M31.7303 12.4136L31.0232 11.7065L29.6083 13.1214L30.3154 13.8285L31.7303 12.4136Z" fill="black"/>
<path d="M32.7949 34.02C30.9849 34.02 28.9389 33.3275 26.7989 31.9627C23.4567 29.8315 20.2519 26.295 17.7752 22.005C15.2984 17.715 13.8382 13.1717 13.6634 9.21146C13.4837 5.13446 14.6869 2.13746 17.0517 0.771957C19.4164 -0.593543 22.6139 -0.136793 26.0547 2.05721C29.3969 4.18846 32.6017 7.72496 35.0784 12.015C37.5552 16.305 39.0154 20.8482 39.1902 24.8085C39.3699 28.8855 38.1664 31.8825 35.8017 33.2477C34.9079 33.764 33.8947 34.02 32.7949 34.02ZM20.0644 0.999956C19.1367 0.999956 18.2909 1.21121 17.5517 1.63796C15.5257 2.80746 14.4997 5.48146 14.6622 9.16721C14.8299 12.9697 16.2429 17.3515 18.6412 21.505C21.0392 25.6585 24.1269 29.0727 27.3362 31.1195C30.4469 33.1032 33.2754 33.5512 35.3014 32.382C37.3274 31.2125 38.3534 28.5385 38.1909 24.8527C38.0232 21.0502 36.6102 16.6685 34.2119 12.515C31.8139 8.36146 28.7262 4.94721 25.5169 2.90046C23.5412 1.64046 21.6792 0.999956 20.0644 0.999956Z" fill="black"/>
<path d="M20.0599 34.02C18.9599 34.02 17.9472 33.7642 17.0532 33.248C14.6884 31.8827 13.4852 28.8855 13.6647 24.8087C13.8394 20.8485 15.2997 16.305 17.7764 12.0152C20.2532 7.72546 23.4579 4.18896 26.8002 2.05746C30.2407 -0.136286 33.4384 -0.593537 35.8032 0.772213C38.1679 2.13746 39.3712 5.13471 39.1917 9.21146C39.0169 13.1717 37.5567 17.7152 35.0799 22.005C32.6032 26.2947 29.3984 29.8312 26.0562 31.9627C23.9162 33.3272 21.8702 34.02 20.0599 34.02ZM32.7904 0.999963C31.1757 0.999963 29.3139 1.64046 27.3377 2.90046C24.1284 4.94721 21.0407 8.36146 18.6427 12.515C16.2444 16.6685 14.8314 21.05 14.6637 24.8527C14.5012 28.5385 15.5272 31.2125 17.5532 32.382C19.5787 33.5512 22.4074 33.1032 25.5184 31.1195C28.7277 29.0727 31.8154 25.6585 34.2134 21.505C36.6117 17.3515 38.0247 12.97 38.1924 9.16721C38.3549 5.48146 37.3289 2.80746 35.3029 1.63796C34.5642 1.21146 33.7179 0.999963 32.7904 0.999963Z" fill="black"/>
<path d="M26.4274 27C21.4739 27 16.8089 25.9927 13.2922 24.164C9.67143 22.2812 7.67743 19.7405 7.67743 17.01C7.67743 14.2795 9.67143 11.7387 13.2922 9.85596C16.8089 8.02721 21.4739 7.01996 26.4274 7.01996C31.3809 7.01996 36.0459 8.02721 39.5627 9.85596C43.1834 11.7387 45.1774 14.2795 45.1774 17.01C45.1774 19.7405 43.1834 22.2812 39.5627 24.164C36.0459 25.9927 31.3809 27 26.4274 27ZM26.4274 8.01996C16.6402 8.01996 8.67743 12.0527 8.67743 17.01C8.67743 21.9672 16.6402 26 26.4274 26C36.2147 26 44.1774 21.9672 44.1774 17.01C44.1774 12.0527 36.2147 8.01996 26.4274 8.01996Z" fill="black"/>
<path d="M26.4274 20.7599C28.4985 20.7599 30.1774 19.081 30.1774 17.0099C30.1774 14.9389 28.4985 13.2599 26.4274 13.2599C24.3564 13.2599 22.6774 14.9389 22.6774 17.0099C22.6774 19.081 24.3564 20.7599 26.4274 20.7599Z" fill="#FF9F59"/>
<path d="M26.4274 21.2599C24.0839 21.2599 22.1774 19.3534 22.1774 17.0099C22.1774 14.6664 24.0839 12.7599 26.4274 12.7599C28.7709 12.7599 30.6774 14.6664 30.6774 17.0099C30.6774 19.3534 28.7709 21.2599 26.4274 21.2599ZM26.4274 13.7599C24.6354 13.7599 23.1774 15.2179 23.1774 17.0099C23.1774 18.8019 24.6354 20.2599 26.4274 20.2599C28.2194 20.2599 29.6774 18.8019 29.6774 17.0099C29.6774 15.2179 28.2194 13.7599 26.4274 13.7599Z" fill="black"/>
<path d="M1.77309 43.3319L0.211082 37.4216H1.36781L2.43166 42.1245L3.68127 37.4216H4.87177L6.0876 42.1245L7.15145 37.4216H8.31662L6.7124 43.3319H5.42902L4.25541 38.9498L3.04802 43.3319H1.77309ZM11.6137 43.4332C11.0226 43.4332 10.5048 43.3037 10.0601 43.0448C9.62104 42.7859 9.27487 42.4284 9.02157 41.9725C8.7739 41.5109 8.65006 40.979 8.65006 40.3767C8.65006 39.7744 8.7739 39.2453 9.02157 38.7894C9.27487 38.3278 9.62104 37.9676 10.0601 37.7087C10.5048 37.4497 11.0226 37.3203 11.6137 37.3203C12.1991 37.3203 12.7141 37.4497 13.1588 37.7087C13.6035 37.9676 13.9496 38.3278 14.1973 38.7894C14.445 39.2453 14.5688 39.7744 14.5688 40.3767C14.5688 40.979 14.445 41.5109 14.1973 41.9725C13.9496 42.4284 13.6035 42.7859 13.1588 43.0448C12.7141 43.3037 12.1991 43.4332 11.6137 43.4332ZM11.6137 42.4622C12.1765 42.4622 12.624 42.2765 12.9561 41.905C13.2939 41.5335 13.4627 41.0241 13.4627 40.3767C13.4627 39.7294 13.2939 39.22 12.9561 38.8485C12.624 38.477 12.1765 38.2912 11.6137 38.2912C11.0508 38.2912 10.6005 38.477 10.2627 38.8485C9.925 39.22 9.75613 39.7294 9.75613 40.3767C9.75613 41.0241 9.925 41.5335 10.2627 41.905C10.6005 42.2765 11.0508 42.4622 11.6137 42.4622ZM15.523 43.3319V37.4216H16.6038L19.3816 41.5841V37.4216H20.4623V43.3319H19.3816L16.6038 39.1778V43.3319H15.523ZM21.6081 43.3319V37.4216H23.6261C24.3184 37.4216 24.8869 37.5454 25.3316 37.7931C25.7819 38.0351 26.114 38.3785 26.3279 38.8232C26.5474 39.2622 26.6572 39.7801 26.6572 40.3767C26.6572 40.9734 26.5474 41.4941 26.3279 41.9387C26.114 42.3778 25.7819 42.7211 25.3316 42.9688C24.8869 43.2109 24.3184 43.3319 23.6261 43.3319H21.6081ZM22.6888 42.4031H23.5754C24.0707 42.4031 24.4619 42.3243 24.749 42.1667C25.0361 42.0035 25.2415 41.7727 25.3654 41.4744C25.4892 41.1704 25.5511 40.8045 25.5511 40.3767C25.5511 39.9546 25.4892 39.5915 25.3654 39.2876C25.2415 38.9836 25.0361 38.75 24.749 38.5868C24.4619 38.4235 24.0707 38.3419 23.5754 38.3419H22.6888V42.4031ZM27.6107 43.3319V37.4216H31.4693V38.2912H28.6915V39.9124H31.216V40.7567H28.6915V42.4622H31.4693V43.3319H27.6107ZM32.492 43.3319V37.4216H34.6619C35.1348 37.4216 35.5231 37.5032 35.8271 37.6664C36.1367 37.8241 36.3675 38.0408 36.5195 38.3166C36.6714 38.5868 36.7474 38.8879 36.7474 39.22C36.7474 39.5803 36.6517 39.9095 36.4604 40.2079C36.2746 40.5062 35.9819 40.7229 35.5823 40.858L36.8065 43.3319H35.5654L34.4677 41.0015H33.5728V43.3319H32.492ZM33.5728 40.2079H34.5944C34.9546 40.2079 35.2192 40.1206 35.3881 39.9461C35.5569 39.7716 35.6414 39.5409 35.6414 39.2538C35.6414 38.9723 35.5569 38.7472 35.3881 38.5783C35.2248 38.4095 34.9574 38.325 34.5859 38.325H33.5728V40.2079ZM37.7526 43.3319V37.4216H38.8333V42.4876H41.4507V43.3319H37.7526ZM42.023 43.3319L44.1845 37.4216H45.4003L47.5618 43.3319H46.4135L45.9407 41.9641H43.6357L43.1544 43.3319H42.023ZM43.9312 41.1197H45.6452L44.784 38.6627L43.9312 41.1197ZM48.3231 43.3319V37.4216H50.6957C51.3093 37.4216 51.7764 37.5651 52.0973 37.8522C52.4238 38.1336 52.587 38.4967 52.587 38.9414C52.587 39.3129 52.4857 39.6112 52.283 39.8364C52.086 40.0559 51.844 40.2051 51.5569 40.2839C51.8947 40.3514 52.1733 40.5203 52.3928 40.7905C52.6123 41.055 52.7221 41.3646 52.7221 41.7192C52.7221 42.1864 52.5532 42.572 52.2155 42.8759C51.8778 43.1799 51.3993 43.3319 50.7801 43.3319H48.3231ZM49.4039 39.9039H50.5353C50.8392 39.9039 51.0728 39.8336 51.2361 39.6928C51.3993 39.5521 51.4809 39.3523 51.4809 39.0934C51.4809 38.8457 51.3993 38.6515 51.2361 38.5108C51.0785 38.3644 50.8392 38.2912 50.5184 38.2912H49.4039V39.9039ZM49.4039 42.4538H50.6113C50.9321 42.4538 51.1798 42.3806 51.3543 42.2343C51.5344 42.0823 51.6245 41.8712 51.6245 41.601C51.6245 41.3252 51.5316 41.1085 51.3458 40.9509C51.1601 40.7933 50.9096 40.7145 50.5944 40.7145H49.4039V42.4538Z" fill="black"/>
</svg>
